HIERARCHY
ROOT Hips
{
	OFFSET 0.000000 100.481300 0.000000
	CHANNELS 6 Xposition Yposition Zposition Xrotation Yrotation Zrotation
	JOINT Spine
	{
		OFFSET -0.279200 12.230698 -2.892100
		CHANNELS 3 Xrotation Yrotation Zrotation
		JOINT Spine1
		{
			OFFSET -0.325700 14.269203 -3.374200
			CHANNELS 3 Xrotation Yrotation Zrotation
			JOINT Spine2
			{
				OFFSET -0.372300 16.307602 -0.352600
				CHANNELS 3 Xrotation Yrotation Zrotation
				JOINT Neck
				{
					OFFSET -0.418800 17.814194 8.416900
					CHANNELS 3 Xrotation Yrotation Zrotation
					JOINT Head
					{
						OFFSET 0.000000 7.031097 3.806800
						CHANNELS 3 Xrotation Yrotation Zrotation
						JOINT HeadTop_End
						{
							OFFSET 0.000000 24.646606 12.978600
							CHANNELS 3 Xrotation Yrotation Zrotation
							End Site
							{
								OFFSET 0.000000 27.854965 0.000000
							}
						}
					}
				}
				JOINT LeftShoulder
				{
					OFFSET 16.952999 14.495407 -7.737500
					CHANNELS 3 Xrotation Yrotation Zrotation
					JOINT LeftArm
					{
						OFFSET 9.308998 -2.777710 0.208600
						CHANNELS 3 Xrotation Yrotation Zrotation
						JOINT LeftForeArm
						{
							OFFSET 29.972298 0.000000 0.000000
							CHANNELS 3 Xrotation Yrotation Zrotation
							JOINT LeftHand
							{
								OFFSET 26.026505 0.000000 0.000000
								CHANNELS 3 Xrotation Yrotation Zrotation
								JOINT LeftHandThumb1
								{
									OFFSET 12.240501 -7.147949 9.207150
									CHANNELS 3 Xrotation Yrotation Zrotation
									JOINT LeftHandThumb2
									{
										OFFSET 4.138618 -2.389435 2.389433
										CHANNELS 3 Xrotation Yrotation Zrotation
										JOINT LeftHandThumb3
										{
											OFFSET 2.726913 -1.574387 1.574386
											CHANNELS 3 Xrotation Yrotation Zrotation
											JOINT LeftHandThumb4
											{
												OFFSET 3.941010 -2.275345 2.275342
												CHANNELS 3 Xrotation Yrotation Zrotation
												End Site
												{
													OFFSET -0.005798 5.087799 0.009903
												}
											}
										}
									}
								}
								JOINT LeftHandIndex1
								{
									OFFSET 24.424698 -1.985611 5.953459
									CHANNELS 3 Xrotation Yrotation Zrotation
									JOINT LeftHandIndex2
									{
										OFFSET 6.426697 0.000000 0.000000
										CHANNELS 3 Xrotation Yrotation Zrotation
										JOINT LeftHandIndex3
										{
											OFFSET 5.337898 0.000000 0.000000
											CHANNELS 3 Xrotation Yrotation Zrotation
											JOINT LeftHandIndex4
											{
												OFFSET 4.409401 0.000000 0.000000
												CHANNELS 3 Xrotation Yrotation Zrotation
												End Site
												{
													OFFSET 0.000000 4.409363 0.014373
												}
											}
										}
									}
								}
								JOINT LeftHandMiddle1
								{
									OFFSET 23.810104 0.000000 0.000000
									CHANNELS 3 Xrotation Yrotation Zrotation
									JOINT LeftHandMiddle2
									{
										OFFSET 7.176498 0.000000 0.000000
										CHANNELS 3 Xrotation Yrotation Zrotation
										JOINT LeftHandMiddle3
										{
											OFFSET 6.774902 0.000000 0.000000
											CHANNELS 3 Xrotation Yrotation Zrotation
											JOINT LeftHandMiddle4
											{
												OFFSET 5.403328 0.000000 0.000000
												CHANNELS 3 Xrotation Yrotation Zrotation
												End Site
												{
													OFFSET -0.027702 5.403244 0.017414
												}
											}
										}
									}
								}
								JOINT LeftHandRing1
								{
									OFFSET 22.908401 -0.839279 -6.020567
									CHANNELS 3 Xrotation Yrotation Zrotation
									JOINT LeftHandRing2
									{
										OFFSET 6.337502 0.000000 0.000000
										CHANNELS 3 Xrotation Yrotation Zrotation
										JOINT LeftHandRing3
										{
											OFFSET 5.779297 0.000000 0.000000
											CHANNELS 3 Xrotation Yrotation Zrotation
											JOINT LeftHandRing4
											{
												OFFSET 4.965698 0.000000 0.000000
												CHANNELS 3 Xrotation Yrotation Zrotation
												End Site
												{
													OFFSET 0.000000 4.965668 0.016186
												}
											}
										}
									}
								}
								JOINT LeftHandPinky1
								{
									OFFSET 20.037003 -1.530319 -10.950146
									CHANNELS 3 Xrotation Yrotation Zrotation
									JOINT LeftHandPinky2
									{
										OFFSET 5.254700 0.000000 0.000000
										CHANNELS 3 Xrotation Yrotation Zrotation
										JOINT LeftHandPinky3
										{
											OFFSET 4.810204 0.000000 0.000000
											CHANNELS 3 Xrotation Yrotation Zrotation
											JOINT LeftHandPinky4
											{
												OFFSET 3.647202 0.000000 0.000000
												CHANNELS 3 Xrotation Yrotation Zrotation
												End Site
												{
													OFFSET 0.000000 3.647186 0.011889
												}
											}
										}
									}
								}
							}
						}
					}
				}
				JOINT RightShoulder
				{
					OFFSET -15.141001 14.495407 -7.737500
					CHANNELS 3 Xrotation Yrotation Zrotation
					JOINT RightArm
					{
						OFFSET -9.308998 -2.777710 0.208500
						CHANNELS 3 Xrotation Yrotation Zrotation
						JOINT RightForeArm
						{
							OFFSET -29.972300 0.000000 0.000000
							CHANNELS 3 Xrotation Yrotation Zrotation
							JOINT RightHand
							{
								OFFSET -26.026505 0.000000 0.000000
								CHANNELS 3 Xrotation Yrotation Zrotation
								JOINT RightHandThumb1
								{
									OFFSET -12.240601 -7.148026 9.207092
									CHANNELS 3 Xrotation Yrotation Zrotation
									JOINT RightHandThumb2
									{
										OFFSET -4.138618 -2.389435 2.389433
										CHANNELS 3 Xrotation Yrotation Zrotation
										JOINT RightHandThumb3
										{
											OFFSET -2.726974 -1.574417 1.574421
											CHANNELS 3 Xrotation Yrotation Zrotation
											JOINT RightHandThumb4
											{
												OFFSET -3.941010 -2.275345 2.275343
												CHANNELS 3 Xrotation Yrotation Zrotation
												End Site
												{
													OFFSET 0.005814 5.087799 0.009927
												}
											}
										}
									}
								}
								JOINT RightHandIndex1
								{
									OFFSET -24.424698 -1.985657 5.953444
									CHANNELS 3 Xrotation Yrotation Zrotation
									JOINT RightHandIndex2
									{
										OFFSET -6.426697 0.000000 0.000000
										CHANNELS 3 Xrotation Yrotation Zrotation
										JOINT RightHandIndex3
										{
											OFFSET -5.337898 0.000000 0.000000
											CHANNELS 3 Xrotation Yrotation Zrotation
											JOINT RightHandIndex4
											{
												OFFSET -4.409401 0.000000 0.000000
												CHANNELS 3 Xrotation Yrotation Zrotation
												End Site
												{
													OFFSET 0.000000 4.409363 0.014408
												}
											}
										}
									}
								}
								JOINT RightHandMiddle1
								{
									OFFSET -23.810097 0.000000 0.000000
									CHANNELS 3 Xrotation Yrotation Zrotation
									JOINT RightHandMiddle2
									{
										OFFSET -7.176498 0.000000 0.000000
										CHANNELS 3 Xrotation Yrotation Zrotation
										JOINT RightHandMiddle3
										{
											OFFSET -6.774902 0.000000 0.000000
											CHANNELS 3 Xrotation Yrotation Zrotation
											JOINT RightHandMiddle4
											{
												OFFSET -5.403328 0.000000 0.000000
												CHANNELS 3 Xrotation Yrotation Zrotation
												End Site
												{
													OFFSET 0.027702 5.403244 0.017457
												}
											}
										}
									}
								}
								JOINT RightHandRing1
								{
									OFFSET -22.908302 -0.839325 -6.020576
									CHANNELS 3 Xrotation Yrotation Zrotation
									JOINT RightHandRing2
									{
										OFFSET -6.337502 0.000000 0.000000
										CHANNELS 3 Xrotation Yrotation Zrotation
										JOINT RightHandRing3
										{
											OFFSET -5.779297 0.000000 0.000000
											CHANNELS 3 Xrotation Yrotation Zrotation
											JOINT RightHandRing4
											{
												OFFSET -4.965698 0.000000 0.000000
												CHANNELS 3 Xrotation Yrotation Zrotation
												End Site
												{
													OFFSET 0.000000 4.965668 0.016226
												}
											}
										}
									}
								}
								JOINT RightHandPinky1
								{
									OFFSET -20.037003 -1.530334 -10.950259
									CHANNELS 3 Xrotation Yrotation Zrotation
									JOINT RightHandPinky2
									{
										OFFSET -5.254700 0.000000 0.000000
										CHANNELS 3 Xrotation Yrotation Zrotation
										JOINT RightHandPinky3
										{
											OFFSET -4.810204 0.000000 0.000000
											CHANNELS 3 Xrotation Yrotation Zrotation
											JOINT RightHandPinky4
											{
												OFFSET -3.647202 0.000000 0.000000
												CHANNELS 3 Xrotation Yrotation Zrotation
												End Site
												{
													OFFSET 0.000000 3.647186 0.011917
												}
											}
										}
									}
								}
							}
						}
					}
				}
			}
		}
	}
	JOINT LeftUpLeg
	{
		OFFSET 15.427100 -6.655098 0.678600
		CHANNELS 3 Xrotation Yrotation Zrotation
		JOINT LeftLeg
		{
			OFFSET 4.081073 -39.591068 13.024000
			CHANNELS 3 Xrotation Yrotation Zrotation
			JOINT LeftFoot
			{
				OFFSET -4.081074 -37.707932 -15.979700
				CHANNELS 3 Xrotation Yrotation Zrotation
				JOINT LeftToeBase
				{
					OFFSET 5.346399 -15.068900 20.645000
					CHANNELS 3 Xrotation Yrotation Zrotation
					JOINT LeftToe_End
					{
						OFFSET 2.754700 0.931300 11.300900
						CHANNELS 3 Xrotation Yrotation Zrotation
						End Site
						{
							OFFSET 0.000000 11.669021 0.000000
						}
					}
				}
			}
		}
	}
	JOINT RightUpLeg
	{
		OFFSET -15.569500 -6.655098 0.678600
		CHANNELS 3 Xrotation Yrotation Zrotation
		JOINT RightLeg
		{
			OFFSET -4.081825 -39.591045 13.023800
			CHANNELS 3 Xrotation Yrotation Zrotation
			JOINT RightFoot
			{
				OFFSET 4.081824 -37.707954 -15.979600
				CHANNELS 3 Xrotation Yrotation Zrotation
				JOINT RightToeBase
				{
					OFFSET -5.346400 -15.068900 20.645000
					CHANNELS 3 Xrotation Yrotation Zrotation
					JOINT RightToe_End
					{
						OFFSET -2.754700 0.931300 11.300900
						CHANNELS 3 Xrotation Yrotation Zrotation
						End Site
						{
							OFFSET 0.000000 11.669021 0.000000
						}
					}
				}
			}
		}
	}
}
MOTION
Frames: 5
Frame Time: 0.033333
53.109718 89.832855 -0.681999 -14.354225 -41.578865 -6.268959 7.822994 1.489071 -1.803269 16.213845 0.205931 -1.105063 16.210525 0.150326 -1.096536 0.282155 7.380544 0.526825 -8.392505 20.934480 10.944747 0.000001 0.000001 0.000001 -37.746634 -5.053425 1.644622 -43.174083 -6.686120 -63.198743 0.000098 -66.110145 0.000109 -117.566817 0.598983 33.261727 4.709228 9.560371 3.111989 19.452708 -0.823064 7.919036 -4.609504 -9.851199 1.612288 -0.000000 0.000001 -0.000000 -0.275917 3.873347 -37.080038 2.932577 5.073430 -60.036516 0.508978 2.390298 -24.037775 0.000003 -0.000000 -0.000003 0.421347 5.561203 -53.239371 3.365555 5.298568 -64.823953 0.274752 1.774747 -17.599447 0.000003 0.000001 0.000000 0.329385 6.009360 -61.855682 3.975544 5.543309 -71.273967 0.547643 2.475113 -24.948977 0.000000 0.000005 0.000002 -6.014190 4.934807 -73.502125 3.280174 5.257769 -63.895634 0.171592 1.408907 -13.886913 -0.000001 0.000002 -0.000004 -41.231639 -8.488274 -10.043102 -44.014767 58.069640 96.587467 0.000176 100.244330 -0.000173 -53.057603 -16.444020 -29.290795 8.424324 -4.976879 11.029448 22.193986 -17.460810 -18.715567 -0.891024 -49.842120 -32.736079 -0.000003 0.000000 0.000002 -0.909352 1.505186 12.746953 0.742990 -2.525537 32.782299 0.611077 -2.308104 29.654970 0.000000 -0.000001 0.000000 3.509109 -7.225015 52.442271 6.279058 -4.366225 110.401156 0.242652 -1.485048 18.556994 0.000000 0.000000 0.000000 -3.693223 -2.492862 57.820372 5.377303 -4.601267 98.904916 1.639466 -3.548856 49.580193 0.000000 0.000001 0.000001 -4.488275 -3.240717 65.709131 4.048451 -4.617306 82.481378 2.304802 -4.020521 59.633972 0.000000 -0.000000 0.000002 -19.845806 43.707490 28.910524 24.178707 0.689575 -1.151893 0.475812 2.214551 -7.202768 -0.000053 -0.000001 -0.000000 -0.000000 0.000001 0.000000 7.782836 11.758142 -8.022054 30.097136 -3.811981 2.528864 -24.771961 -18.565465 5.256021 -0.116972 -0.000001 -0.000001 0.000000 0.000002 -0.000000 
53.560436 90.007896 -1.018702 -14.715281 -41.159997 -6.819786 7.974528 1.158452 -1.840465 16.274657 0.124159 -1.034618 16.272021 0.066024 -1.023132 0.323426 7.409889 0.650209 -8.437446 21.104036 11.499851 -0.000002 0.000002 0.000000 -37.766517 -5.154872 1.901453 -43.061921 -6.911562 -62.797217 -0.000221 -65.899366 -0.000231 -117.830476 0.402472 33.120557 4.709228 9.560369 3.111990 19.413004 -1.083022 7.889452 -4.600599 -9.773955 1.581503 0.000000 0.000003 -0.000002 -0.258197 3.898311 -37.100064 2.934050 5.074279 -60.053195 0.509722 2.391966 -24.055653 0.000004 0.000000 -0.000002 0.435708 5.572091 -53.242933 3.367778 5.299608 -64.847817 0.275509 1.777094 -17.623748 0.000003 -0.000000 -0.000002 0.254849 5.965389 -61.790194 3.999628 5.551390 -71.523186 0.558250 2.497769 -25.193532 0.000001 0.000000 0.000002 -6.132184 4.881841 -73.413667 3.289339 5.262220 -63.995642 0.173739 1.417592 -13.974308 -0.000002 -0.000003 -0.000002 -41.233610 -8.481376 -10.046518 -44.440008 57.975820 96.991282 0.000146 99.772883 -0.000130 -53.138933 -16.074266 -28.884703 8.478904 -5.060722 11.036965 22.051141 -17.618210 -18.620827 -0.882356 -49.841151 -32.726807 -0.000000 0.000003 0.000004 -0.918572 1.537472 12.771741 0.743803 -2.526803 32.800816 0.611804 -2.309359 29.672855 -0.000000 0.000000 -0.000001 3.495384 -7.214363 52.445963 6.280862 -4.365527 110.425103 0.243242 -1.486957 18.581279 -0.000000 0.000000 -0.000000 -3.624559 -2.526589 57.751128 5.396864 -4.598173 99.148727 1.654670 -3.561736 49.825667 0.000000 0.000001 -0.000002 -4.375169 -3.277763 65.613802 4.055092 -4.618176 82.563818 2.310974 -4.024108 59.722013 -0.000000 -0.000001 0.000001 -20.177350 43.539427 29.089554 23.989708 0.517376 -1.133694 0.808763 2.163657 -6.686313 -0.000042 -0.000009 0.000004 0.000000 0.000000 0.000000 7.916742 10.995486 -7.630165 29.420873 -3.624482 2.273343 -24.264964 -18.476567 5.181479 -0.122427 0.000005 -0.000000 -0.000000 -0.000001 -0.000000 
53.985756 90.116089 -1.243158 -15.270408 -40.613562 -7.341987 8.132413 0.857685 -1.731542 16.326722 0.050125 -0.961285 16.324757 -0.010263 -0.946574 0.358279 7.427223 0.712147 -8.365254 21.135042 11.775275 0.000000 0.000002 -0.000001 -37.765759 -5.203750 2.005642 -43.001577 -7.072748 -62.591020 0.000097 -65.306847 0.000089 -118.105432 0.486209 32.796359 4.709228 9.560375 3.111988 19.450383 -1.136338 7.823384 -4.586963 -9.756987 1.567458 -0.000000 0.000003 -0.000000 -0.255700 3.900032 -37.077941 2.935669 5.075191 -60.071521 0.510485 2.393692 -24.074076 -0.000003 -0.000001 -0.000001 0.448169 5.580035 -53.217699 3.366966 5.299231 -64.839136 0.275256 1.776330 -17.615669 0.000001 -0.000002 0.000001 0.220693 5.941130 -61.698738 4.009342 5.554611 -71.623542 0.562547 2.506878 -25.291863 -0.000001 -0.000000 0.000002 -6.213821 4.827866 -73.267630 3.289350 5.262239 -63.995881 0.173547 1.416792 -13.966303 -0.000000 0.000001 -0.000000 -41.233886 -8.481678 -10.047331 -44.960260 57.951191 97.563822 0.000131 99.220512 -0.000133 -53.163894 -15.959189 -28.684220 8.429419 -4.984411 11.029781 21.949901 -17.751156 -18.565182 -0.831318 -49.835540 -32.672329 0.000002 0.000001 0.000002 -0.918558 1.546042 12.750571 0.744634 -2.528073 32.819486 0.612546 -2.310665 29.691324 -0.000000 0.000000 -0.000001 3.479446 -7.203286 52.420633 6.280209 -4.365763 110.416544 0.243040 -1.486331 18.573216 0.000000 0.000000 0.000000 -3.597046 -2.530908 57.658811 5.404698 -4.596893 99.246767 1.660816 -3.566895 49.924404 -0.000000 0.000001 -0.000000 -4.301921 -3.288508 65.462452 4.054148 -4.618045 82.552091 2.310392 -4.023793 59.713994 -0.000001 -0.000000 0.000000 -20.179049 43.413260 29.038840 23.896143 0.270325 -1.102164 1.012362 2.105986 -6.166373 -0.000057 -0.000007 -0.000002 -0.000000 -0.000000 -0.000000 8.360428 9.939876 -7.428980 28.798953 -3.150644 2.038527 -24.177842 -18.379148 4.897523 -0.104458 -0.000001 0.000001 0.000000 0.000000 -0.000000 
54.394005 90.119064 -1.404341 -15.777206 -40.306797 -7.751640 8.240299 0.713440 -1.553381 16.365821 0.016891 -0.901920 16.364464 -0.045590 -0.884910 0.382050 7.432234 0.721091 -8.193377 21.119380 11.750263 -0.000000 0.000000 0.000001 -37.729470 -5.198022 1.949070 -42.987688 -6.990616 -62.440715 -0.000020 -64.848801 -0.000023 -118.289738 0.769101 32.587396 4.709228 9.560376 3.111989 19.490442 -1.126716 7.768637 -4.568126 -9.753416 1.557010 -0.000000 0.000002 -0.000001 -0.263499 3.885039 -37.014055 2.936762 5.075835 -60.083815 0.510961 2.394772 -24.085865 0.000005 -0.000002 -0.000002 0.448270 5.575988 -53.140385 3.367242 5.299365 -64.842162 0.275362 1.776635 -17.618881 -0.000003 -0.000000 0.000002 0.213200 5.930759 -61.602173 4.007797 5.554093 -71.607423 0.561833 2.505375 -25.275571 0.000001 -0.000000 0.000002 -6.250603 4.786574 -73.118685 3.285699 5.260455 -63.955972 0.172465 1.412449 -13.922611 -0.000000 0.000000 -0.000003 -41.231656 -8.487704 -10.043548 -45.674827 57.981592 98.389688 0.000144 98.758054 -0.000122 -53.082509 -16.092744 -28.695547 8.373788 -4.898892 11.022004 21.892226 -17.835967 -18.537929 -0.771297 -49.828887 -32.608225 -0.000001 0.000003 0.000000 -0.911603 1.540622 12.685108 0.745143 -2.528891 32.831196 0.613017 -2.311501 29.703127 0.000000 0.000000 -0.000000 3.468336 -7.198256 52.342762 6.280451 -4.365701 110.419563 0.243132 -1.486561 18.576414 -0.000000 0.000000 0.000000 -3.595926 -2.517914 57.563079 5.403386 -4.597107 99.230293 1.659806 -3.566037 49.908056 -0.000000 0.000000 0.000001 -4.273612 -3.278799 65.310610 4.050470 -4.617587 82.506595 2.307323 -4.021997 59.670076 -0.000000 -0.000001 0.000001 -20.112100 43.306869 28.950747 24.012730 0.189873 -1.089454 1.036745 2.085980 -5.773117 0.000047 0.000005 -0.000006 0.000000 0.000000 -0.000000 8.485534 8.878432 -7.359459 28.630159 -2.346798 1.790861 -24.116693 -18.268970 4.646383 -0.112430 -0.000014 0.000001 -0.000000 -0.000000 -0.000000 
54.786041 90.139526 -1.509317 -16.124589 -40.194741 -8.092771 8.240042 0.692979 -1.407330 16.383435 0.014593 -0.869115 16.382490 -0.049348 -0.851055 0.395162 7.434018 0.718071 -7.993410 21.157061 11.627046 -0.000000 0.000000 -0.000001 -37.675498 -5.131510 1.808467 -42.980082 -6.945555 -62.411974 0.000057 -64.605482 0.000057 -118.275886 1.016493 32.551189 4.709228 9.560379 3.111988 19.491635 -1.168967 7.744652 -4.552287 -9.733144 1.543946 0.000000 0.000002 -0.000002 -0.269070 3.871881 -36.935453 2.937590 5.076313 -60.093282 0.511359 2.395638 -24.095000 0.000001 0.000000 -0.000001 0.432301 5.557594 -53.020365 3.370715 5.300987 -64.879823 0.276510 1.780242 -17.655882 -0.000002 0.000005 -0.000002 0.206280 5.921843 -61.523605 4.003490 5.552670 -71.562870 0.559894 2.501250 -25.231115 0.000002 0.000001 -0.000001 -6.259126 4.762235 -73.011362 3.283698 5.259481 -63.934218 0.171893 1.410161 -13.899500 -0.000001 0.000000 0.000001 -41.226619 -8.498288 -10.034373 -45.971982 58.028912 98.879460 0.000057 98.546454 -0.000053 -53.028325 -16.201402 -28.762118 8.368536 -4.890896 11.021294 21.853458 -17.888368 -18.516658 -0.737245 -49.825079 -32.571881 -0.000002 -0.000001 0.000002 -0.904878 1.541748 12.605712 0.745549 -2.529517 32.840318 0.613402 -2.312140 29.712300 0.000000 0.000000 -0.000000 3.467095 -7.202701 52.221758 6.283295 -4.364642 110.457143 0.244111 -1.489443 18.613500 -0.000000 -0.000000 0.000000 -3.594189 -2.507872 57.485181 5.399794 -4.597712 99.185405 1.657037 -3.563711 49.863400 -0.000000 0.000000 -0.000000 -4.270987 -3.263779 65.202215 4.048591 -4.617309 82.483004 2.305684 -4.021034 59.646826 -0.000000 -0.000000 0.000001 -20.067700 43.233144 28.883989 24.112284 0.234594 -1.093775 1.006694 2.090539 -5.470450 0.000064 -0.000003 -0.000007 0.000000 0.000000 0.000000 8.343929 7.837955 -7.310262 28.550814 -1.410730 1.521843 -23.779353 -18.149631 4.506042 -0.131097 0.000009 0.000000 0.000000 -0.000002 -0.000000 
